M48
;Layer_Color=9474304
;FILE_FORMAT=4:4
METRIC,LZ
;TYPE=PLATED
T01F00S00C0.8500
T02F00S00C0.9000
T03F00S00C1.0200
T04F00S00C1.0500
%
T01
X0120722Y005715
X0129722
X0129468Y0067183
X0129341Y0074803
X0120341
X0120468Y0067183
X0088701Y0067691
X0088574Y0071882
X0088701Y0076073
X0079701
X0079574Y0071882
X0079701Y0067691
Y0080264
Y0084328
Y0088773
X0079574Y0093091
X0088574
X0088701Y0088773
Y0084328
Y0080264
X0120341Y0082296
X0120468Y0090043
X0120214Y0097663
X0120087Y0105791
X0129087
X0129214Y0097663
X0129468Y0090043
X0129341Y0082296
T02
X0110236Y0057277
X0112776
X0113284Y0067056
X0110744
Y0074803
X0113284
X0102743Y0075819
Y0078359
Y0073279
X0095123
Y0075819
Y0078359
Y0080899
Y0083439
Y0085979
Y0088519
Y0091059
X0102743
Y0088519
Y0085979
Y0083439
Y0080899
X0110744Y008255
X0113284
Y0090043
X0110744
Y0097663
X0113284
X0113157Y0105791
X0110617
X0091186Y0104549
Y0108049
X0081788Y0107275
Y0104775
T03
X0072263Y0072517
Y0075057
Y0077597
Y0080137
Y0082677
Y0085217
Y0087757
Y0090297
T04
X0097536Y0062865
X0105156
M30
