G04*
G04 #@! TF.GenerationSoftware,Altium Limited,Altium Designer,26.7.1 (11)*
G04*
G04 Layer_Color=65535*
G04 Board_Origin=0|0*
%FSLAX44Y44*%
%MOMM*%
G71*
G04*
G04 #@! TF.SameCoordinates,9AEFF2DC-821E-4972-92AC-0FB6717DD00C*
G04*
G04*
G04 #@! TF.FilePolarity,Positive*
G04*
G01*
G75*
%ADD10C,0.2000*%
%ADD11C,0.2500*%
%ADD12C,0.1500*%
%ADD13C,0.6000*%
%ADD14C,0.1270*%
%ADD15C,0.2540*%
D10*
X1081960Y628650D02*
G03*
X1081960Y628650I-68500J0D01*
G01*
X951860Y1062990D02*
G03*
X951860Y1062990I-40000J0D01*
G01*
X982980Y920190D02*
G03*
X995680Y920190I6350J0D01*
G01*
X810510Y875730D02*
X873510D01*
X810510Y899730D02*
X873510D01*
X810510Y894470D02*
Y899730D01*
X873510Y875730D02*
Y880990D01*
X810510Y875730D02*
Y880990D01*
X873510Y894470D02*
Y899730D01*
X810510Y790640D02*
X873510D01*
X810510Y814640D02*
X873510D01*
X810510Y809380D02*
Y814640D01*
X873510Y790640D02*
Y795900D01*
X810510Y790640D02*
Y795900D01*
X873510Y809380D02*
Y814640D01*
X809240Y918910D02*
X872240D01*
X809240Y942910D02*
X872240D01*
X809240Y937650D02*
Y942910D01*
X872240Y918910D02*
Y924170D01*
X809240Y918910D02*
Y924170D01*
X872240Y937650D02*
Y942910D01*
X809240Y706820D02*
X872240D01*
X809240Y730820D02*
X872240D01*
X809240Y725560D02*
Y730820D01*
X872240Y706820D02*
Y712080D01*
X809240Y706820D02*
Y712080D01*
X872240Y725560D02*
Y730820D01*
X810510Y831280D02*
X873510D01*
X810510Y855280D02*
X873510D01*
X810510Y850020D02*
Y855280D01*
X873510Y831280D02*
Y836540D01*
X810510Y831280D02*
Y836540D01*
X873510Y850020D02*
Y855280D01*
X810510Y748730D02*
X873510D01*
X810510Y772730D02*
X873510D01*
X810510Y767470D02*
Y772730D01*
X873510Y748730D02*
Y753990D01*
X810510Y748730D02*
Y753990D01*
X873510Y767470D02*
Y772730D01*
X810510Y664910D02*
X873510D01*
X810510Y688910D02*
X873510D01*
X810510Y683650D02*
Y688910D01*
X873510Y664910D02*
Y670170D01*
X810510Y664910D02*
Y670170D01*
X873510Y683650D02*
Y688910D01*
X725880Y1097250D02*
X840880D01*
Y1023250D02*
Y1097250D01*
X725880Y1023250D02*
X840880D01*
X725880D02*
Y1097250D01*
X709280Y917570D02*
X735980D01*
X709280Y710570D02*
Y917570D01*
Y710570D02*
X735980D01*
Y917570D01*
X905510Y1113790D02*
X918210D01*
X911860Y1107440D02*
Y1120140D01*
X962830Y723190D02*
Y920190D01*
X1015830Y723190D02*
Y920190D01*
X962830D02*
X982980D01*
X995680D02*
X1015830D01*
X962830Y723190D02*
X1015830D01*
X1214370Y1045910D02*
X1277370D01*
X1214370Y1069910D02*
X1277370D01*
X1214370Y1064650D02*
Y1069910D01*
X1277370Y1045910D02*
Y1051170D01*
X1214370Y1045910D02*
Y1051170D01*
X1277370Y1064650D02*
Y1069910D01*
X1215640Y964630D02*
X1278640D01*
X1215640Y988630D02*
X1278640D01*
X1215640Y983370D02*
Y988630D01*
X1278640Y964630D02*
Y969890D01*
X1215640Y964630D02*
Y969890D01*
X1278640Y983370D02*
Y988630D01*
X1218180Y888430D02*
X1281180D01*
X1218180Y912430D02*
X1281180D01*
X1218180Y907170D02*
Y912430D01*
X1281180Y888430D02*
Y893690D01*
X1218180Y888430D02*
Y893690D01*
X1281180Y907170D02*
Y912430D01*
X1216910Y810960D02*
X1279910D01*
X1216910Y834960D02*
X1279910D01*
X1216910Y829700D02*
Y834960D01*
X1279910Y810960D02*
Y816220D01*
X1216910Y810960D02*
Y816220D01*
X1279910Y829700D02*
Y834960D01*
X1216910Y736030D02*
X1279910D01*
X1216910Y760030D02*
X1279910D01*
X1216910Y754770D02*
Y760030D01*
X1279910Y736030D02*
Y741290D01*
X1216910Y736030D02*
Y741290D01*
X1279910Y754770D02*
Y760030D01*
X1218180Y659830D02*
X1281180D01*
X1218180Y683830D02*
X1281180D01*
X1218180Y678570D02*
Y683830D01*
X1281180Y659830D02*
Y665090D01*
X1218180Y659830D02*
Y665090D01*
X1281180Y678570D02*
Y683830D01*
X1220720Y559500D02*
X1283720D01*
X1220720Y583500D02*
X1283720D01*
X1220720Y578240D02*
Y583500D01*
X1283720Y559500D02*
Y564760D01*
X1220720Y559500D02*
Y564760D01*
X1283720Y578240D02*
Y583500D01*
D11*
X848633Y1072750D02*
G03*
X848633Y1072750I-1250J0D01*
G01*
X723880Y923570D02*
G03*
X723880Y923570I-1250J0D01*
G01*
X1083870Y1057910D02*
G03*
X1083870Y1057910I-1250J0D01*
G01*
X1085140Y976630D02*
G03*
X1085140Y976630I-1250J0D01*
G01*
Y900430D02*
G03*
X1085140Y900430I-1250J0D01*
G01*
Y825500D02*
G03*
X1085140Y825500I-1250J0D01*
G01*
Y748030D02*
G03*
X1085140Y748030I-1250J0D01*
G01*
Y670560D02*
G03*
X1085140Y670560I-1250J0D01*
G01*
X1080060Y572770D02*
G03*
X1080060Y572770I-1250J0D01*
G01*
X952480Y923590D02*
G03*
X952480Y923590I-1250J0D01*
G01*
D12*
X1149620Y1057910D02*
G03*
X1149620Y1057910I-30750J0D01*
G01*
X1150890Y976630D02*
G03*
X1150890Y976630I-30750J0D01*
G01*
Y900430D02*
G03*
X1150890Y900430I-30750J0D01*
G01*
Y825500D02*
G03*
X1150890Y825500I-30750J0D01*
G01*
Y748030D02*
G03*
X1150890Y748030I-30750J0D01*
G01*
Y670560D02*
G03*
X1150890Y670560I-30750J0D01*
G01*
X1145810Y572770D02*
G03*
X1145810Y572770I-30750J0D01*
G01*
D13*
X975830Y910190D02*
G03*
X975830Y910190I-3000J0D01*
G01*
D14*
X1093120Y1042910D02*
Y1072910D01*
X1094390Y961630D02*
Y991630D01*
Y885430D02*
Y915430D01*
Y810500D02*
Y840500D01*
Y733030D02*
Y763030D01*
Y655560D02*
Y685560D01*
X1089310Y557770D02*
Y587770D01*
D15*
X745597Y712226D02*
X745399Y727460D01*
X753016Y727559D01*
X755588Y725053D01*
X755654Y719975D01*
X753148Y717403D01*
X745531Y717304D01*
X750609Y717370D02*
X755752Y712358D01*
X760830Y712424D02*
X765908Y712490D01*
X763369Y712457D01*
X763172Y727690D01*
X760666Y725118D01*
X773361Y725283D02*
X775866Y727855D01*
X780944Y727921D01*
X783516Y725415D01*
X783648Y715259D01*
X781142Y712687D01*
X776064Y712621D01*
X773492Y715127D01*
X773361Y725283D01*
X702310Y572766D02*
Y560070D01*
X706542Y564302D01*
X710774Y560070D01*
Y572766D01*
X717122Y568534D02*
X721354D01*
X723470Y566418D01*
Y560070D01*
X717122D01*
X715006Y562186D01*
X717122Y564302D01*
X723470D01*
X729818Y570650D02*
Y568534D01*
X727702D01*
X731934D01*
X729818D01*
Y562186D01*
X731934Y560070D01*
X744630D02*
X740398D01*
X738282Y562186D01*
Y566418D01*
X740398Y568534D01*
X744630D01*
X746746Y566418D01*
Y564302D01*
X738282D01*
X750978Y568534D02*
Y560070D01*
Y564302D01*
X753093Y566418D01*
X755210Y568534D01*
X757326D01*
X776369Y572766D02*
Y560070D01*
X784833D01*
X795413D02*
X791181D01*
X789065Y562186D01*
Y566418D01*
X791181Y568534D01*
X795413D01*
X797529Y566418D01*
Y564302D01*
X789065D01*
X801761Y568534D02*
X805993Y560070D01*
X810225Y568534D01*
X820805Y560070D02*
X816573D01*
X814457Y562186D01*
Y566418D01*
X816573Y568534D01*
X820805D01*
X822921Y566418D01*
Y564302D01*
X814457D01*
X827153Y560070D02*
X831385D01*
X829269D01*
Y572766D01*
X827153D01*
X850429D02*
X854661D01*
X852545D01*
Y560070D01*
X850429D01*
X854661D01*
X861009D02*
Y568534D01*
X867356D01*
X869473Y566418D01*
Y560070D01*
X882168Y572766D02*
Y560070D01*
X875820D01*
X873705Y562186D01*
Y566418D01*
X875820Y568534D01*
X882168D01*
X886400Y560070D02*
X890632D01*
X888516D01*
Y568534D01*
X886400D01*
X905444D02*
X899096D01*
X896980Y566418D01*
Y562186D01*
X899096Y560070D01*
X905444D01*
X911792Y568534D02*
X916024D01*
X918140Y566418D01*
Y560070D01*
X911792D01*
X909676Y562186D01*
X911792Y564302D01*
X918140D01*
X924488Y570650D02*
Y568534D01*
X922372D01*
X926604D01*
X924488D01*
Y562186D01*
X926604Y560070D01*
X935068D02*
X939300D01*
X941416Y562186D01*
Y566418D01*
X939300Y568534D01*
X935068D01*
X932952Y566418D01*
Y562186D01*
X935068Y560070D01*
X945648Y568534D02*
Y560070D01*
Y564302D01*
X947764Y566418D01*
X949880Y568534D01*
X951996D01*
X702308Y1046478D02*
X701039Y1047747D01*
X698500D01*
X697230Y1046478D01*
Y1041400D01*
X698500Y1040130D01*
X701039D01*
X702308Y1041400D01*
Y1043939D01*
X699769D01*
X704847Y1040130D02*
Y1047747D01*
X709926Y1040130D01*
Y1047747D01*
X712465D02*
Y1040130D01*
X716274D01*
X717543Y1041400D01*
Y1046478D01*
X716274Y1047747D01*
X712465D01*
X697230Y1080769D02*
X702308D01*
X699769Y1083308D02*
Y1078230D01*
X704847Y1084577D02*
Y1079499D01*
X707387Y1076960D01*
X709926Y1079499D01*
Y1084577D01*
X751844Y795023D02*
Y810257D01*
X759462D01*
X762001Y807718D01*
Y802640D01*
X759462Y800101D01*
X751844D01*
X756923D02*
X762001Y795023D01*
X774697D02*
Y810257D01*
X767079Y802640D01*
X777236D01*
X750574Y833122D02*
Y848357D01*
X758192D01*
X760731Y845818D01*
Y840740D01*
X758192Y838201D01*
X750574D01*
X755652D02*
X760731Y833122D01*
X765809Y848357D02*
X775966D01*
Y845818D01*
X765809Y835662D01*
Y833122D01*
X748034Y923292D02*
Y938528D01*
X755652D01*
X758191Y935988D01*
Y930910D01*
X755652Y928371D01*
X748034D01*
X753112D02*
X758191Y923292D01*
X773426D02*
X763269D01*
X773426Y933449D01*
Y935988D01*
X770887Y938528D01*
X765808D01*
X763269Y935988D01*
X749304Y878843D02*
X749304Y894078D01*
X756922Y894078D01*
X759461Y891538D01*
X759461Y886460D01*
X756922Y883921D01*
X749304Y883921D01*
X754382Y883921D02*
X759461Y878842D01*
X774696Y894077D02*
X764539Y894078D01*
X764539Y886460D01*
X769618Y888999D01*
X772157Y888999D01*
X774696Y886460D01*
X774696Y881381D01*
X772157Y878842D01*
X767078Y878842D01*
X764539Y881382D01*
X751844Y754382D02*
Y769617D01*
X759462D01*
X762001Y767078D01*
Y762000D01*
X759462Y759461D01*
X751844D01*
X756923D02*
X762001Y754382D01*
X767079Y756922D02*
X769618Y754382D01*
X774697D01*
X777236Y756922D01*
Y767078D01*
X774697Y769617D01*
X769618D01*
X767079Y767078D01*
Y764539D01*
X769618Y762000D01*
X777236D01*
X746766Y668023D02*
Y683258D01*
X754384D01*
X756923Y680718D01*
Y675640D01*
X754384Y673101D01*
X746766D01*
X751844D02*
X756923Y668023D01*
X762001D02*
X767080D01*
X764540D01*
Y683258D01*
X762001Y680718D01*
X784854Y668023D02*
X774697D01*
X784854Y678179D01*
Y680718D01*
X782315Y683258D01*
X777236D01*
X774697Y680718D01*
X900436Y610868D02*
Y595633D01*
X910592D01*
X925828Y608328D02*
X923288Y610868D01*
X918210D01*
X915671Y608328D01*
Y605789D01*
X918210Y603250D01*
X923288D01*
X925828Y600711D01*
Y598172D01*
X923288Y595633D01*
X918210D01*
X915671Y598172D01*
X930906Y595633D02*
X935984D01*
X933445D01*
Y610868D01*
X930906Y608328D01*
X927100Y628647D02*
X937257D01*
X932178Y633726D02*
Y623569D01*
X727202Y1106170D02*
Y1121405D01*
X734819D01*
X737359Y1118866D01*
Y1113788D01*
X734819Y1111248D01*
X727202D01*
X742437Y1106170D02*
X747515D01*
X744976D01*
Y1121405D01*
X742437Y1118866D01*
X706120Y699768D02*
X701042D01*
X703581D01*
Y687072D01*
X701042Y684532D01*
X698503D01*
X695963Y687072D01*
X711198Y684532D02*
X716277D01*
X713738D01*
Y699768D01*
X711198Y697228D01*
X965200Y1038858D02*
X962661Y1041397D01*
X957582D01*
X955043Y1038858D01*
Y1028702D01*
X957582Y1026162D01*
X962661D01*
X965200Y1028702D01*
X970278Y1026162D02*
X975357D01*
X972818D01*
Y1041397D01*
X970278Y1038858D01*
X1145543Y1115058D02*
Y1099822D01*
X1153161D01*
X1155700Y1102362D01*
Y1112518D01*
X1153161Y1115058D01*
X1145543D01*
X1160778Y1099822D02*
X1165857D01*
X1163318D01*
Y1115058D01*
X1160778Y1112518D01*
X1145544Y1028698D02*
Y1013463D01*
X1153162D01*
X1155701Y1016002D01*
Y1026158D01*
X1153162Y1028698D01*
X1145544D01*
X1170936Y1013463D02*
X1160779D01*
X1170936Y1023619D01*
Y1026158D01*
X1168397Y1028698D01*
X1163318D01*
X1160779Y1026158D01*
X1149354Y952497D02*
Y937262D01*
X1156972D01*
X1159511Y939802D01*
Y949958D01*
X1156972Y952497D01*
X1149354D01*
X1164589Y949958D02*
X1167128Y952497D01*
X1172207D01*
X1174746Y949958D01*
Y947419D01*
X1172207Y944880D01*
X1169668D01*
X1172207D01*
X1174746Y942341D01*
Y939802D01*
X1172207Y937262D01*
X1167128D01*
X1164589Y939802D01*
X1150624Y877568D02*
Y862333D01*
X1158242D01*
X1160781Y864872D01*
Y875028D01*
X1158242Y877568D01*
X1150624D01*
X1173477Y862333D02*
Y877568D01*
X1165859Y869950D01*
X1176016D01*
X1145544Y797558D02*
Y782322D01*
X1153162D01*
X1155701Y784862D01*
Y795018D01*
X1153162Y797558D01*
X1145544D01*
X1170936D02*
X1160779D01*
Y789940D01*
X1165857Y792479D01*
X1168397D01*
X1170936Y789940D01*
Y784862D01*
X1168397Y782322D01*
X1163318D01*
X1160779Y784862D01*
X1144274Y715007D02*
Y699772D01*
X1151892D01*
X1154431Y702312D01*
Y712468D01*
X1151892Y715007D01*
X1144274D01*
X1169666D02*
X1164587Y712468D01*
X1159509Y707390D01*
Y702312D01*
X1162048Y699772D01*
X1167127D01*
X1169666Y702312D01*
Y704851D01*
X1167127Y707390D01*
X1159509D01*
X1126494Y628647D02*
Y613413D01*
X1134112D01*
X1136651Y615952D01*
Y626108D01*
X1134112Y628647D01*
X1126494D01*
X1141729D02*
X1151886D01*
Y626108D01*
X1141729Y615952D01*
Y613413D01*
X943102Y948939D02*
X948180D01*
X945641D01*
Y933704D01*
X943102D01*
X948180D01*
X965955Y946400D02*
X963415Y948939D01*
X958337D01*
X955798Y946400D01*
Y936243D01*
X958337Y933704D01*
X963415D01*
X965955Y936243D01*
X971033Y933704D02*
X976111D01*
X973572D01*
Y948939D01*
X971033Y946400D01*
X1195324Y1078738D02*
Y1093973D01*
X1202942D01*
X1205481Y1091434D01*
Y1086356D01*
X1202942Y1083816D01*
X1195324D01*
X1200402D02*
X1205481Y1078738D01*
X1210559D02*
X1215637D01*
X1213098D01*
Y1093973D01*
X1210559Y1091434D01*
X1196594Y997458D02*
Y1012693D01*
X1204212D01*
X1206751Y1010154D01*
Y1005076D01*
X1204212Y1002536D01*
X1196594D01*
X1201672D02*
X1206751Y997458D01*
X1211829Y1010154D02*
X1214368Y1012693D01*
X1219447D01*
X1221986Y1010154D01*
Y1007615D01*
X1219447Y1005076D01*
X1216907D01*
X1219447D01*
X1221986Y1002536D01*
Y999997D01*
X1219447Y997458D01*
X1214368D01*
X1211829Y999997D01*
X1199134Y921258D02*
Y936493D01*
X1206751D01*
X1209291Y933954D01*
Y928876D01*
X1206751Y926336D01*
X1199134D01*
X1204212D02*
X1209291Y921258D01*
X1224526Y936493D02*
X1219447Y933954D01*
X1214369Y928876D01*
Y923797D01*
X1216908Y921258D01*
X1221987D01*
X1224526Y923797D01*
Y926336D01*
X1221987Y928876D01*
X1214369D01*
X1197864Y843788D02*
Y859023D01*
X1205481D01*
X1208021Y856484D01*
Y851405D01*
X1205481Y848866D01*
X1197864D01*
X1202942D02*
X1208021Y843788D01*
X1213099Y856484D02*
X1215638Y859023D01*
X1220717D01*
X1223256Y856484D01*
Y853945D01*
X1220717Y851405D01*
X1223256Y848866D01*
Y846327D01*
X1220717Y843788D01*
X1215638D01*
X1213099Y846327D01*
Y848866D01*
X1215638Y851405D01*
X1213099Y853945D01*
Y856484D01*
X1215638Y851405D02*
X1220717D01*
X1197864Y768858D02*
Y784093D01*
X1205481D01*
X1208021Y781554D01*
Y776476D01*
X1205481Y773936D01*
X1197864D01*
X1202942D02*
X1208021Y768858D01*
X1213099D02*
X1218177D01*
X1215638D01*
Y784093D01*
X1213099Y781554D01*
X1225795Y768858D02*
X1230873D01*
X1228334D01*
Y784093D01*
X1225795Y781554D01*
X1199134Y692658D02*
Y707893D01*
X1206751D01*
X1209291Y705354D01*
Y700275D01*
X1206751Y697736D01*
X1199134D01*
X1204212D02*
X1209291Y692658D01*
X1214369D02*
X1219447D01*
X1216908D01*
Y707893D01*
X1214369Y705354D01*
X1227065D02*
X1229604Y707893D01*
X1234682D01*
X1237222Y705354D01*
Y702815D01*
X1234682Y700275D01*
X1232143D01*
X1234682D01*
X1237222Y697736D01*
Y695197D01*
X1234682Y692658D01*
X1229604D01*
X1227065Y695197D01*
X1201674Y592328D02*
Y607563D01*
X1209292D01*
X1211831Y605024D01*
Y599945D01*
X1209292Y597406D01*
X1201674D01*
X1206752D02*
X1211831Y592328D01*
X1216909D02*
X1221987D01*
X1219448D01*
Y607563D01*
X1216909Y605024D01*
X1237223Y592328D02*
Y607563D01*
X1229605Y599945D01*
X1239762D01*
M02*
